<?xml version="1.0" encoding="UTF-8" standalone="no"?>
<svg
   xmlns:dc="http://purl.org/dc/elements/1.1/"
   xmlns:cc="http://creativecommons.org/ns#"
   xmlns:rdf="http://www.w3.org/1999/02/22-rdf-syntax-ns#"
   xmlns:svg="http://www.w3.org/2000/svg"
   xmlns="http://www.w3.org/2000/svg"
   xmlns:sodipodi="http://sodipodi.sourceforge.net/DTD/sodipodi-0.dtd"
   xmlns:inkscape="http://www.inkscape.org/namespaces/inkscape"
   inkscape:version="1.0 (4035a4f, 2020-05-01)"
   sodipodi:docname="tick-4.svg"
   id="svg492"
   version="1.1"
   fill="none"
   viewBox="0 0 122.88 122.88"
   height="122.88"
   width="122.88">
  <defs
     id="defs1003" />
  <metadata
     id="metadata496">
    <rdf:RDF>
      <cc:Work
         rdf:about="">
        <dc:format>image/svg+xml</dc:format>
        <dc:type
           rdf:resource="http://purl.org/dc/dcmitype/StillImage" />
        <dc:title></dc:title>
      </cc:Work>
    </rdf:RDF>
  </metadata>
  <sodipodi:namedview
     inkscape:current-layer="g398"
     inkscape:window-maximized="0"
     inkscape:window-y="25"
     inkscape:window-x="0"
     inkscape:cy="247"
     inkscape:cx="344"
     inkscape:zoom="1.0520719"
     showgrid="false"
     id="namedview494"
     inkscape:window-height="904"
     inkscape:window-width="1545"
     inkscape:pageshadow="2"
     inkscape:pageopacity="0"
     guidetolerance="10"
     gridtolerance="10"
     objecttolerance="10"
     borderopacity="1"
     bordercolor="#666666"
     pagecolor="#ffffff"
     inkscape:document-rotation="0" />
  <g
     id="g398">
    <path
       fill="#505158"
       d="M6,6H6a20.53,20.53,0,0,1,29,0l26.5,26.49L87.93,6a20.54,20.54,0,0,1,29,0h0a20.53,20.53,0,0,1,0,29L90.41,61.44,116.9,87.93a20.54,20.54,0,0,1,0,29h0a20.54,20.54,0,0,1-29,0L61.44,90.41,35,116.9a20.54,20.54,0,0,1-29,0H6a20.54,20.54,0,0,1,0-29L32.47,61.44,6,34.94A20.53,20.53,0,0,1,6,6Z"
       id="bad" />
  </g>
</svg>
