<?xml version="1.0" encoding="UTF-8" standalone="no"?>
<svg
   xmlns:dc="http://purl.org/dc/elements/1.1/"
   xmlns:cc="http://creativecommons.org/ns#"
   xmlns:rdf="http://www.w3.org/1999/02/22-rdf-syntax-ns#"
   xmlns:svg="http://www.w3.org/2000/svg"
   xmlns="http://www.w3.org/2000/svg"
   xmlns:sodipodi="http://sodipodi.sourceforge.net/DTD/sodipodi-0.dtd"
   xmlns:inkscape="http://www.inkscape.org/namespaces/inkscape"
   width="688"
   height="494"
   viewBox="0 0 688 494"
   fill="none"
   version="1.1"
   id="svg492"
   sodipodi:docname="tick-2.svg"
   inkscape:version="1.0 (4035a4f, 2020-05-01)">
  <metadata
     id="metadata496">
    <rdf:RDF>
      <cc:Work
         rdf:about="">
        <dc:format>image/svg+xml</dc:format>
        <dc:type
           rdf:resource="http://purl.org/dc/dcmitype/StillImage" />
        <dc:title></dc:title>
      </cc:Work>
    </rdf:RDF>
  </metadata>
  <sodipodi:namedview
     inkscape:document-rotation="0"
     pagecolor="#ffffff"
     bordercolor="#666666"
     borderopacity="1"
     objecttolerance="10"
     gridtolerance="10"
     guidetolerance="10"
     inkscape:pageopacity="0"
     inkscape:pageshadow="2"
     inkscape:window-width="1545"
     inkscape:window-height="904"
     id="namedview494"
     showgrid="false"
     inkscape:zoom="1.0520719"
     inkscape:cx="344"
     inkscape:cy="247"
     inkscape:window-x="0"
     inkscape:window-y="25"
     inkscape:window-maximized="0"
     inkscape:current-layer="g398" />
  <g
     clip-path="url(#clip0)"
     id="g398">
    <path
       id="RF-380"
       d="M486.431 235.139V253.893H463.027H439.623V232.884H434.548V214.837H459.925V210.326H492.148V235.139H486.431Z"
       fill="#505158"
       stroke="#23242B"
       stroke-width="1.17104" />
    <path
       d="M22.9124 29V19.9227H24.4516L28.6746 26.632V19.9227H30.2006V29H28.6614L24.4385 22.2907V29H22.9124ZM38.0032 27.0135C37.9418 27.3819 37.7883 27.7283 37.5428 28.0528C37.306 28.3773 36.9727 28.6404 36.5429 28.8421C36.1132 29.0351 35.5957 29.1316 34.9906 29.1316C34.2714 29.1316 33.6706 28.9868 33.1883 28.6974C32.7059 28.3992 32.3419 27.9914 32.0964 27.474C31.8596 26.9565 31.7412 26.3601 31.7412 25.6848C31.7412 24.9919 31.8639 24.3824 32.1095 23.8562C32.3551 23.3212 32.7191 22.9046 33.2014 22.6064C33.6838 22.2994 34.2758 22.146 34.9774 22.146C35.6527 22.146 36.2184 22.2863 36.6745 22.5669C37.1306 22.8476 37.4726 23.2291 37.7006 23.7115C37.9374 24.1938 38.0558 24.742 38.0558 25.3559C38.0558 25.4612 38.0514 25.5839 38.0427 25.7243C38.0339 25.8646 38.0164 25.983 37.9901 26.0795H33.2804C33.3418 26.632 33.5128 27.0705 33.7934 27.395C34.0741 27.7195 34.4863 27.8818 35.0301 27.8818C35.4072 27.8818 35.7273 27.8072 35.9904 27.6581C36.2623 27.5003 36.4421 27.2854 36.5298 27.0135H38.0032ZM35.0037 23.3431C34.5389 23.3431 34.1618 23.4878 33.8724 23.7772C33.5917 24.0579 33.4075 24.4526 33.3198 24.9612H36.1614C36.3018 24.9612 36.3938 24.9393 36.4377 24.8955C36.4903 24.8428 36.5166 24.7595 36.5166 24.6455C36.5166 24.321 36.3851 24.0228 36.122 23.7509C35.8676 23.4791 35.4949 23.3431 35.0037 23.3431ZM39.9543 27.1319V23.5273H38.7835V22.317H39.5202C39.7132 22.317 39.8403 22.2907 39.9017 22.238C39.9719 22.1767 40.0157 22.0495 40.0333 21.8565L40.2175 20.3042H41.4541V22.2775H43.0854V23.5273H41.4672V26.882C41.4672 27.2415 41.5418 27.4915 41.6909 27.6318C41.84 27.7721 42.1075 27.8423 42.4934 27.8423H43.2169V29.0526C42.9977 29.0789 42.7784 29.0965 42.5591 29.1052C42.3399 29.1228 42.1425 29.1316 41.9671 29.1316C41.2831 29.1316 40.7744 28.9693 40.4411 28.6448C40.1166 28.3203 39.9543 27.816 39.9543 27.1319ZM46.1224 29L44.0044 22.2775H45.6357L46.8065 26.9346C46.8592 27.0837 46.9162 27.1582 46.9776 27.1582C47.0565 27.1582 47.1135 27.0837 47.1486 26.9346L48.451 22.2775H49.7665L51.0558 26.9346C51.0996 27.0837 51.161 27.1582 51.24 27.1582C51.3101 27.1582 51.3627 27.0837 51.3978 26.9346L52.5818 22.2775H54.1605L52.0424 29H50.398L49.0824 24.1193L47.7669 29H46.1224ZM58.014 29.1316C56.9791 29.1316 56.1679 28.8246 55.5803 28.2107C55.0014 27.588 54.712 26.7329 54.712 25.6453C54.712 24.549 55.0058 23.6939 55.5934 23.08C56.181 22.4573 56.9879 22.146 58.014 22.146C59.0489 22.146 59.8558 22.4529 60.4347 23.0668C61.0223 23.6808 61.3161 24.5359 61.3161 25.6322C61.3161 26.7197 61.0223 27.5748 60.4347 28.1975C59.847 28.8202 59.0402 29.1316 58.014 29.1316ZM58.014 27.8028C58.5753 27.8028 59.0051 27.6143 59.3033 27.2372C59.6102 26.86 59.7637 26.325 59.7637 25.6322C59.7637 24.9393 59.6102 24.4087 59.3033 24.0404C59.0051 23.6632 58.5753 23.4747 58.014 23.4747C57.4527 23.4747 57.0186 23.6632 56.7116 24.0404C56.4134 24.4087 56.2644 24.9437 56.2644 25.6453C56.2644 26.3382 56.4134 26.8732 56.7116 27.2503C57.0186 27.6187 57.4527 27.8028 58.014 27.8028ZM62.7492 29V22.2775H64.0516L64.1832 23.2247C64.3586 22.9177 64.6085 22.6722 64.933 22.488C65.2575 22.3038 65.6215 22.2117 66.0249 22.2117C66.2793 22.2117 66.4722 22.2337 66.6038 22.2775V23.6062H66.1433C65.5031 23.6062 65.0295 23.7465 64.7225 24.0272C64.4156 24.2991 64.2621 24.7288 64.2621 25.3164V29H62.7492ZM67.7725 29V19.5938H69.2854V25.0665L71.9691 22.2775H73.7977L70.7851 25.2507L74.0345 29H72.1138L69.2854 25.5664V29H67.7725ZM83.7127 25.9479H85.3177C85.1949 26.974 84.8046 27.7721 84.1468 28.3422C83.4978 28.9035 82.6427 29.1842 81.5815 29.1842C80.301 29.1842 79.3144 28.7807 78.6215 27.9739C77.9374 27.1582 77.5954 25.9918 77.5954 24.4745C77.5954 22.9748 77.9462 21.8127 78.6478 20.9883C79.3582 20.1551 80.3536 19.7385 81.6341 19.7385C82.6515 19.7385 83.4803 20.0235 84.1205 20.5936C84.7608 21.1637 85.1423 21.9574 85.2651 22.9748H83.6601C83.5636 22.4047 83.3312 21.9574 82.9628 21.6329C82.5945 21.3084 82.1384 21.1461 81.5947 21.1461C80.8404 21.1461 80.2572 21.4356 79.845 22.0144C79.4328 22.5845 79.2267 23.3957 79.2267 24.4482C79.2267 25.5094 79.4328 26.3294 79.845 26.9083C80.2572 27.4871 80.836 27.7765 81.5815 27.7765C82.1428 27.7765 82.6076 27.6143 82.976 27.2898C83.3531 26.9653 83.5987 26.518 83.7127 25.9479ZM89.7081 29.1316C88.6732 29.1316 87.862 28.8246 87.2744 28.2107C86.6955 27.588 86.4061 26.7329 86.4061 25.6453C86.4061 24.549 86.6999 23.6939 87.2875 23.08C87.8751 22.4573 88.682 22.146 89.7081 22.146C90.743 22.146 91.5499 22.4529 92.1288 23.0668C92.7164 23.6808 93.0102 24.5359 93.0102 25.6322C93.0102 26.7197 92.7164 27.5748 92.1288 28.1975C91.5411 28.8202 90.7343 29.1316 89.7081 29.1316ZM89.7081 27.8028C90.2694 27.8028 90.6992 27.6143 90.9974 27.2372C91.3043 26.86 91.4578 26.325 91.4578 25.6322C91.4578 24.9393 91.3043 24.4087 90.9974 24.0404C90.6992 23.6632 90.2694 23.4747 89.7081 23.4747C89.1468 23.4747 88.7127 23.6632 88.4057 24.0404C88.1075 24.4087 87.9585 24.9437 87.9585 25.6453C87.9585 26.3382 88.1075 26.8732 88.4057 27.2503C88.7127 27.6187 89.1468 27.8028 89.7081 27.8028ZM94.4433 29V22.2775H95.7457L95.8641 23.1326C96.0571 22.8432 96.3289 22.6064 96.6798 22.4222C97.0306 22.238 97.4559 22.146 97.9558 22.146C98.675 22.146 99.2407 22.3521 99.6529 22.7643C100.074 23.1765 100.284 23.786 100.284 24.5929V29H98.7715V24.8428C98.7715 23.9395 98.3505 23.4878 97.5086 23.4878C97.1051 23.4878 96.7455 23.6062 96.4298 23.843C96.1141 24.0798 95.9562 24.4219 95.9562 24.8692V29H94.4433ZM101.985 29V22.2775H103.287L103.405 23.1326C103.598 22.8432 103.87 22.6064 104.221 22.4222C104.572 22.238 104.997 22.146 105.497 22.146C106.216 22.146 106.782 22.3521 107.194 22.7643C107.615 23.1765 107.826 23.786 107.826 24.5929V29H106.313V24.8428C106.313 23.9395 105.892 23.4878 105.05 23.4878C104.646 23.4878 104.287 23.6062 103.971 23.843C103.655 24.0798 103.498 24.4219 103.498 24.8692V29H101.985ZM115.459 27.0135C115.398 27.3819 115.244 27.7283 114.999 28.0528C114.762 28.3773 114.429 28.6404 113.999 28.8421C113.569 29.0351 113.052 29.1316 112.446 29.1316C111.727 29.1316 111.127 28.9868 110.644 28.6974C110.162 28.3992 109.798 27.9914 109.552 27.474C109.315 26.9565 109.197 26.3601 109.197 25.6848C109.197 24.9919 109.32 24.3824 109.565 23.8562C109.811 23.3212 110.175 22.9046 110.657 22.6064C111.14 22.2994 111.732 22.146 112.433 22.146C113.109 22.146 113.674 22.2863 114.13 22.5669C114.586 22.8476 114.929 23.2291 115.157 23.7115C115.393 24.1938 115.512 24.742 115.512 25.3559C115.512 25.4612 115.507 25.5839 115.499 25.7243C115.49 25.8646 115.472 25.983 115.446 26.0795H110.736C110.798 26.632 110.969 27.0705 111.249 27.395C111.53 27.7195 111.942 27.8818 112.486 27.8818C112.863 27.8818 113.183 27.8072 113.446 27.6581C113.718 27.5003 113.898 27.2854 113.986 27.0135H115.459ZM112.46 23.3431C111.995 23.3431 111.618 23.4878 111.328 23.7772C111.048 24.0579 110.863 24.4526 110.776 24.9612H113.617C113.758 24.9612 113.85 24.9393 113.894 24.8955C113.946 24.8428 113.973 24.7595 113.973 24.6455C113.973 24.321 113.841 24.0228 113.578 23.7509C113.324 23.4791 112.951 23.3431 112.46 23.3431ZM121.425 26.5662H122.885C122.841 27.0135 122.696 27.4345 122.451 27.8292C122.214 28.2151 121.881 28.5308 121.451 28.7764C121.021 29.0132 120.495 29.1316 119.872 29.1316C119.153 29.1316 118.552 28.9868 118.07 28.6974C117.588 28.408 117.224 28.0046 116.978 27.4871C116.741 26.9697 116.623 26.3689 116.623 25.6848C116.623 24.9919 116.746 24.3824 116.991 23.8562C117.237 23.3212 117.601 22.9046 118.083 22.6064C118.574 22.2994 119.179 22.146 119.898 22.146C120.521 22.146 121.039 22.2644 121.451 22.5012C121.872 22.738 122.196 23.0493 122.424 23.4352C122.652 23.8211 122.788 24.2421 122.832 24.6981H121.372C121.284 24.2859 121.113 23.979 120.859 23.7772C120.605 23.5755 120.28 23.4747 119.885 23.4747C119.324 23.4747 118.899 23.672 118.609 24.0667C118.32 24.4526 118.175 24.9919 118.175 25.6848C118.175 26.3426 118.315 26.86 118.596 27.2372C118.886 27.6143 119.311 27.8028 119.872 27.8028C120.284 27.8028 120.622 27.702 120.885 27.5003C121.157 27.2898 121.337 26.9784 121.425 26.5662ZM124.695 27.1319V23.5273H123.524V22.317H124.26C124.453 22.317 124.581 22.2907 124.642 22.238C124.712 22.1767 124.756 22.0495 124.774 21.8565L124.958 20.3042H126.194V22.2775H127.826V23.5273H126.208V26.882C126.208 27.2415 126.282 27.4915 126.431 27.6318C126.58 27.7721 126.848 27.8423 127.234 27.8423H127.957V29.0526C127.738 29.0789 127.519 29.0965 127.299 29.1052C127.08 29.1228 126.883 29.1316 126.707 29.1316C126.023 29.1316 125.515 28.9693 125.181 28.6448C124.857 28.3203 124.695 27.816 124.695 27.1319ZM129.271 21.4356V19.9227H130.889V21.4356H129.271ZM129.324 29V22.2775H130.836V29H129.324ZM135.573 29.1316C134.538 29.1316 133.727 28.8246 133.139 28.2107C132.56 27.588 132.271 26.7329 132.271 25.6453C132.271 24.549 132.564 23.6939 133.152 23.08C133.74 22.4573 134.547 22.146 135.573 22.146C136.608 22.146 137.414 22.4529 137.993 23.0668C138.581 23.6808 138.875 24.5359 138.875 25.6322C138.875 26.7197 138.581 27.5748 137.993 28.1975C137.406 28.8202 136.599 29.1316 135.573 29.1316ZM135.573 27.8028C136.134 27.8028 136.564 27.6143 136.862 27.2372C137.169 26.86 137.322 26.325 137.322 25.6322C137.322 24.9393 137.169 24.4087 136.862 24.0404C136.564 23.6632 136.134 23.4747 135.573 23.4747C135.011 23.4747 134.577 23.6632 134.27 24.0404C133.972 24.4087 133.823 24.9437 133.823 25.6453C133.823 26.3382 133.972 26.8732 134.27 27.2503C134.577 27.6187 135.011 27.8028 135.573 27.8028ZM140.308 29V22.2775H141.61L141.729 23.1326C141.922 22.8432 142.194 22.6064 142.544 22.4222C142.895 22.238 143.321 22.146 143.82 22.146C144.54 22.146 145.105 22.3521 145.517 22.7643C145.938 23.1765 146.149 23.786 146.149 24.5929V29H144.636V24.8428C144.636 23.9395 144.215 23.4878 143.373 23.4878C142.97 23.4878 142.61 23.6062 142.294 23.843C141.979 24.0798 141.821 24.4219 141.821 24.8692V29H140.308ZM147.349 27.0661H148.81C148.959 27.645 149.428 27.9344 150.217 27.9344C150.629 27.9344 150.95 27.8555 151.178 27.6976C151.414 27.5397 151.533 27.3205 151.533 27.0398C151.533 26.8118 151.445 26.6364 151.27 26.5136C151.103 26.3908 150.814 26.3075 150.401 26.2636L149.809 26.1979C149.011 26.1014 148.428 25.8953 148.06 25.5796C147.691 25.2638 147.507 24.8121 147.507 24.2245C147.507 23.6018 147.753 23.1019 148.244 22.7248C148.735 22.3389 149.388 22.146 150.204 22.146C150.985 22.146 151.616 22.3257 152.098 22.6853C152.59 23.0449 152.866 23.5492 152.927 24.1982H151.48C151.357 23.6281 150.936 23.3431 150.217 23.3431C149.849 23.3431 149.551 23.4177 149.323 23.5668C149.103 23.7071 148.994 23.9 148.994 24.1456C148.994 24.3736 149.073 24.5447 149.231 24.6587C149.388 24.7639 149.665 24.8385 150.059 24.8823L150.638 24.9481C151.489 25.0446 152.107 25.2551 152.493 25.5796C152.879 25.9041 153.072 26.3733 153.072 26.9872C153.072 27.645 152.813 28.1668 152.296 28.5527C151.787 28.9386 151.099 29.1316 150.23 29.1316C149.388 29.1316 148.713 28.9518 148.204 28.5922C147.705 28.2238 147.419 27.7151 147.349 27.0661Z"
       fill="white"
       fill-opacity="0.92"
       id="path382" />
    <path
       d="M22.9234 64.4886V63.7102L27.3305 61.7478V62.6907L23.8772 64.083L27.3305 65.4862V66.451L22.9234 64.4886ZM31.7334 67.4815V61.9452H29.7929V61.0791H31.0536C31.3314 61.0791 31.5177 61.0462 31.6128 60.9804C31.7151 60.9147 31.7845 60.7466 31.8211 60.4761L31.8759 60.0267H32.72V67.4815H31.7334ZM35.8731 67.4815V59.643H36.8597V64.2803L39.3483 61.9561H40.5762L37.8793 64.4009L40.7845 67.4815H39.5018L36.8597 64.5982V67.4815H35.8731Z"
       fill="#F5F5F5"
       id="path384" />
    <path
       d="M168.503 67.4815V61.9452H166.563V61.0791H167.823C168.101 61.0791 168.288 61.0462 168.383 60.9804C168.485 60.9147 168.554 60.7466 168.591 60.4761L168.646 60.0267H169.49V67.4815H168.503ZM175.131 67.5911C174.247 67.5911 173.567 67.2622 173.092 66.6044C172.625 65.9467 172.391 64.9965 172.391 63.7541C172.391 62.5043 172.625 61.5542 173.092 60.9037C173.567 60.2459 174.247 59.917 175.131 59.917C176.023 59.917 176.703 60.2459 177.171 60.9037C177.638 61.5615 177.872 62.5116 177.872 63.7541C177.872 65.0038 177.638 65.9576 177.171 66.6154C176.703 67.2659 176.023 67.5911 175.131 67.5911ZM175.131 66.7141C175.665 66.7141 176.085 66.4875 176.392 66.0344C176.699 65.5812 176.853 64.8284 176.853 63.776C176.853 62.7089 176.699 61.9452 176.392 61.4847C176.085 61.0243 175.665 60.7941 175.131 60.7941C174.598 60.7941 174.178 61.0206 173.871 61.4738C173.564 61.9269 173.41 62.6797 173.41 63.7321C173.41 64.7992 173.564 65.563 173.871 66.0234C174.178 66.4838 174.598 66.7141 175.131 66.7141ZM181.705 67.5911C180.821 67.5911 180.141 67.2622 179.666 66.6044C179.198 65.9467 178.964 64.9965 178.964 63.7541C178.964 62.5043 179.198 61.5542 179.666 60.9037C180.141 60.2459 180.821 59.917 181.705 59.917C182.597 59.917 183.276 60.2459 183.744 60.9037C184.212 61.5615 184.446 62.5116 184.446 63.7541C184.446 65.0038 184.212 65.9576 183.744 66.6154C183.276 67.2659 182.597 67.5911 181.705 67.5911ZM181.705 66.7141C182.239 66.7141 182.659 66.4875 182.966 66.0344C183.273 65.5812 183.426 64.8284 183.426 63.776C183.426 62.7089 183.273 61.9452 182.966 61.4847C182.659 61.0243 182.239 60.7941 181.705 60.7941C181.171 60.7941 180.751 61.0206 180.444 61.4738C180.137 61.9269 179.984 62.6797 179.984 63.7321C179.984 64.7992 180.137 65.563 180.444 66.0234C180.751 66.4838 181.171 66.7141 181.705 66.7141ZM185.79 67.4815V59.643H186.777V64.2803L189.265 61.9561H190.493L187.796 64.4009L190.701 67.4815H189.419L186.777 64.5982V67.4815H185.79ZM193.6 66.4619V64.5215H191.659V63.6883H193.6V61.7369H194.498V63.6883H196.439V64.5215H194.498V66.4619H193.6Z"
       fill="#F5F5F5"
       id="path386" />
    <path
       d="M98.1537 65.5301H99.1185C99.1989 65.9613 99.3816 66.2682 99.6666 66.451C99.9517 66.6264 100.295 66.7141 100.697 66.7141C101.209 66.7141 101.603 66.5606 101.881 66.2536C102.166 65.9394 102.309 65.5483 102.309 65.0806C102.309 64.6055 102.181 64.2145 101.925 63.9075C101.676 63.5933 101.293 63.4361 100.774 63.4361C100.416 63.4361 100.112 63.5165 99.8639 63.6773C99.6155 63.8381 99.4327 64.0172 99.3158 64.2145H98.4497V60.0267H102.835V60.8927H99.3706V63.2278C99.7434 62.8113 100.266 62.603 100.938 62.603C101.406 62.603 101.819 62.7016 102.177 62.899C102.535 63.0963 102.813 63.3777 103.01 63.7431C103.215 64.1085 103.317 64.5434 103.317 65.0477C103.317 65.5155 103.215 65.943 103.01 66.3304C102.806 66.7177 102.51 67.0247 102.122 67.2513C101.742 67.4778 101.278 67.5911 100.73 67.5911C100.153 67.5911 99.6776 67.4924 99.3048 67.2951C98.9321 67.0905 98.6507 66.831 98.4607 66.5167C98.278 66.1952 98.1757 65.8663 98.1537 65.5301ZM107.293 67.5911C106.408 67.5911 105.729 67.2622 105.253 66.6044C104.786 65.9467 104.552 64.9965 104.552 63.7541C104.552 62.5043 104.786 61.5542 105.253 60.9037C105.729 60.2459 106.408 59.917 107.293 59.917C108.184 59.917 108.864 60.2459 109.332 60.9037C109.799 61.5615 110.033 62.5116 110.033 63.7541C110.033 65.0038 109.799 65.9576 109.332 66.6154C108.864 67.2659 108.184 67.5911 107.293 67.5911ZM107.293 66.7141C107.826 66.7141 108.246 66.4875 108.553 66.0344C108.86 65.5812 109.014 64.8284 109.014 63.776C109.014 62.7089 108.86 61.9452 108.553 61.4847C108.246 61.0243 107.826 60.7941 107.293 60.7941C106.759 60.7941 106.339 61.0206 106.032 61.4738C105.725 61.9269 105.571 62.6797 105.571 63.7321C105.571 64.7992 105.725 65.563 106.032 66.0234C106.339 66.4838 106.759 66.7141 107.293 66.7141ZM111.377 67.4815V59.643H112.364V64.2803L114.853 61.9561H116.081L113.384 64.4009L116.289 67.4815H115.006L112.364 64.5982V67.4815H111.377Z"
       fill="#F5F5F5"
       id="path388" />
  </g>
  <defs
     id="defs490">
    <clipPath
       id="clip0">
      <rect
         width="688"
         height="494"
         rx="3.28889"
         fill="white"
         id="rect400" />
    </clipPath>
    <clipPath
       id="clip1">
      <path
         d="M354 44H375.926V65.9259H354V44Z"
         fill="white"
         id="path403" />
    </clipPath>
    <clipPath
       id="clip2">
      <path
         d="M517 16H538.926V37.9259H517V16Z"
         fill="white"
         id="path406" />
    </clipPath>
    <clipPath
       id="clip3">
      <path
         d="M354.104 16.3408H376.029V38.2667H354.104V16.3408Z"
         fill="white"
         id="path409" />
    </clipPath>
    <clipPath
       id="clip4">
      <path
         d="M574.874 120.43H596.8V142.356H574.874V120.43Z"
         fill="white"
         id="path412" />
    </clipPath>
    <clipPath
       id="clip5">
      <path
         d="M281.066 438.356H302.992V460.282H281.066V438.356Z"
         fill="white"
         id="path415" />
    </clipPath>
    <clipPath
       id="clip6">
      <path
         d="M196.651 266.237H218.577V288.163H196.651V266.237Z"
         fill="white"
         id="path418" />
    </clipPath>
    <clipPath
       id="clip7">
      <path
         d="M399.466 117.141H421.392V139.067H399.466V117.141Z"
         fill="white"
         id="path421" />
    </clipPath>
    <clipPath
       id="clip8">
      <path
         d="M502.518 113.852H524.444V135.778H502.518V113.852Z"
         fill="white"
         id="path424" />
    </clipPath>
    <clipPath
       id="clip9">
      <path
         d="M248.178 429.585H270.104V451.511H248.178V429.585Z"
         fill="white"
         id="path427" />
    </clipPath>
    <clipPath
       id="clip10">
      <path
         d="M574.874 212.519H596.8V234.444H574.874V212.519Z"
         fill="white"
         id="path430" />
    </clipPath>
    <clipPath
       id="clip11">
      <path
         d="M148.414 290.356H170.34V312.282H148.414V290.356Z"
         fill="white"
         id="path433" />
    </clipPath>
    <clipPath
       id="clip12">
      <path
         d="M326.015 304.607H347.941V326.533H326.015V304.607Z"
         fill="white"
         id="path436" />
    </clipPath>
    <clipPath
       id="clip13">
      <path
         d="M453.185 395.6H475.11V417.526H453.185V395.6Z"
         fill="white"
         id="path439" />
    </clipPath>
    <clipPath
       id="clip14">
      <path
         d="M332.592 117.141H354.518V139.067H332.592V117.141Z"
         fill="white"
         id="path442" />
    </clipPath>
    <clipPath
       id="clip15">
      <path
         d="M274.488 180.726H296.414V202.652H274.488V180.726Z"
         fill="white"
         id="path445" />
    </clipPath>
    <clipPath
       id="clip16">
      <path
         d="M208.711 180.726H230.637V202.652H208.711V180.726Z"
         fill="white"
         id="path448" />
    </clipPath>
    <clipPath
       id="clip17">
      <path
         d="M389.6 407.659H411.526V429.585H389.6V407.659Z"
         fill="white"
         id="path451" />
    </clipPath>
    <clipPath
       id="clip18">
      <path
         d="M415.911 407.659H437.837V429.585H415.911V407.659Z"
         fill="white"
         id="path454" />
    </clipPath>
    <clipPath
       id="clip19">
      <path
         d="M525.54 292.548H547.466V314.474H525.54V292.548Z"
         fill="white"
         id="path457" />
    </clipPath>
    <clipPath
       id="clip20">
      <path
         d="M574.874 187.304H596.8V209.23H574.874V187.304Z"
         fill="white"
         id="path460" />
    </clipPath>
    <clipPath
       id="clip21">
      <path
         d="M282.162 342.978H304.088V364.904H282.162V342.978Z"
         fill="white"
         id="path463" />
    </clipPath>
    <clipPath
       id="clip22">
      <path
         d="M311.763 409.852H333.689V431.778H311.763V409.852Z"
         fill="white"
         id="path466" />
    </clipPath>
    <clipPath
       id="clip23">
      <path
         d="M83.7324 284.874H105.658V306.8H83.7324V284.874Z"
         fill="white"
         id="path469" />
    </clipPath>
    <clipPath
       id="clip24">
      <path
         d="M88.1182 201.556H110.044V223.481H88.1182V201.556Z"
         fill="white"
         id="path472" />
    </clipPath>
    <clipPath
       id="clip25">
      <path
         d="M88.1182 175.244H110.044V197.17H88.1182V175.244Z"
         fill="white"
         id="path475" />
    </clipPath>
    <clipPath
       id="clip26">
      <path
         d="M147.318 226.77H169.244V248.696H147.318V226.77Z"
         fill="white"
         id="path478" />
    </clipPath>
    <clipPath
       id="clip27">
      <path
         d="M224.741 16.3408H246.667V38.2667H224.741V16.3408Z"
         fill="white"
         id="path481" />
    </clipPath>
    <clipPath
       id="clip28">
      <path
         d="M224.741 43.7482H246.667V65.6741H224.741V43.7482Z"
         fill="white"
         id="path484" />
    </clipPath>
    <clipPath
       id="clip29">
      <path
         d="M180.207 404.37H202.133V426.296H180.207V404.37Z"
         fill="white"
         id="path487" />
    </clipPath>
  </defs>
</svg>
